<svg version="1.1" id="Layer_1" xmlns="http://www.w3.org/2000/svg" xmlns:xlink="http://www.w3.org/1999/xlink" x="0px" y="0px"
	 width="100%" viewBox="0 0 528 496" enable-background="new 0 0 528 496" xml:space="preserve">
<path fill="#000000" opacity="1.000000" stroke="none" 
	d="
M354.951660,219.902649 
	C344.918396,234.455322 335.211670,248.798492 325.196075,262.922638 
	C322.121490,267.258514 321.081207,271.735748 321.089630,276.919830 
	C321.175140,329.567505 321.131165,382.215393 321.120697,434.863220 
	C321.120239,437.195526 321.100708,439.527863 321.077271,441.860077 
	C321.032410,446.323303 319.063690,448.503174 314.310516,448.395752 
	C305.318329,448.192474 296.318054,448.372375 287.321442,448.331238 
	C281.381958,448.304108 280.044769,447.050354 280.011139,440.914703 
	C279.925293,425.254150 279.980896,409.592865 279.982117,393.931854 
	C279.985291,352.946381 280.033356,311.960754 279.931885,270.975555 
	C279.920654,266.441864 280.980988,262.606323 283.572784,258.853912 
	C322.003632,203.213791 360.350739,147.515808 398.707245,91.824333 
	C402.864014,85.788910 407.007446,79.742981 411.054871,73.634178 
	C412.863251,70.904747 415.077728,69.531555 418.495667,69.616234 
	C425.988373,69.801880 433.490387,69.761459 440.985565,69.635025 
	C444.600098,69.574051 446.195007,71.077583 446.096497,74.673843 
	C445.991638,78.502914 446.074799,82.336777 446.031708,86.168045 
	C446.010864,88.022507 445.602325,89.719391 444.424194,91.293602 
	C420.874207,122.760857 399.399567,155.680115 376.912903,187.891815 
	C369.574829,198.403519 362.405701,209.033173 354.951660,219.902649 
z"/>
<path fill="#000000" opacity="1.000000" stroke="none" 
	d="
M255.090546,447.099121 
	C250.251389,449.239319 245.544876,448.116241 240.936707,448.289398 
	C235.445602,448.495789 229.941071,448.369690 224.442520,448.346466 
	C217.639084,448.317719 216.653168,447.391907 216.646103,440.488617 
	C216.617569,412.662354 216.650101,384.836029 216.651703,357.009735 
	C216.653275,329.683075 216.615021,302.356323 216.676193,275.029816 
	C216.684311,271.401581 215.941147,268.185120 213.857437,265.158234 
	C191.188507,232.228027 168.643021,199.212662 145.912369,166.325226 
	C128.579803,141.247879 110.926483,116.391861 93.653427,91.274002 
	C89.659218,85.465759 90.611618,78.566032 91.635696,71.966736 
	C91.959503,69.880089 93.833626,69.709816 95.562759,69.707542 
	C103.893837,69.696564 112.225067,69.730103 120.555984,69.692421 
	C124.254646,69.675697 125.591309,72.640747 127.234924,75.020561 
	C138.689819,91.606255 150.022171,108.276505 161.451370,124.880035 
	C191.864426,169.061981 222.289703,213.235565 252.768738,257.371979 
	C255.230515,260.936798 256.381073,264.573181 256.372131,268.986786 
	C256.257294,325.639404 256.307953,382.292358 256.279236,438.945221 
	C256.277924,441.569092 256.817841,444.292938 255.090546,447.099121 
z"/>
<path fill="#000000" opacity="1.000000" stroke="none" 
	d="
M129.945007,445.483582 
	C128.527176,448.560638 126.092514,448.336548 123.759163,448.339020 
	C115.597900,448.347687 107.436584,448.367950 99.275398,448.343506 
	C92.054176,448.321869 90.867218,447.208771 90.857101,439.916443 
	C90.827301,418.430847 90.896057,396.945160 90.900665,375.459503 
	C90.917496,297.011902 90.913857,218.564270 90.979790,140.116730 
	C90.981903,137.603973 89.644524,133.969711 92.605576,132.892319 
	C95.800201,131.729950 96.729439,135.609314 98.126060,137.611954 
	C108.126678,151.952011 117.954788,166.412262 127.885490,180.801331 
	C129.347672,182.919952 130.254837,185.062531 130.253235,187.720795 
	C130.201706,273.163879 130.197037,358.606964 130.180573,444.050079 
	C130.180496,444.381073 130.111694,444.712097 129.945007,445.483582 
z"/>
<path fill="#000000" opacity="1.000000" stroke="none" 
	d="
M446.197723,333.000000 
	C446.203278,368.815216 446.211304,404.130463 446.209869,439.445679 
	C446.209534,447.571106 445.461792,448.316589 437.395569,448.332275 
	C430.065979,448.346527 422.736389,448.360260 415.406830,448.344330 
	C407.967987,448.328186 406.902863,447.217407 406.916718,439.546234 
	C406.942596,425.220551 407.010345,410.894836 407.007538,396.569153 
	C406.994141,328.604156 407.007202,260.639038 406.851044,192.674332 
	C406.838959,187.414703 408.058441,182.978790 411.060516,178.718155 
	C420.844147,164.832947 430.431335,150.809448 440.184082,136.902222 
	C441.313080,135.292358 441.975281,132.156784 444.733704,133.239151 
	C447.193573,134.204376 446.149170,137.062866 446.150726,139.099106 
	C446.199615,203.566055 446.194061,268.033020 446.197723,333.000000 
z"/>
<path fill="#000000" opacity="1.000000" stroke="none" 
	d="
M356.396240,112.347076 
	C328.581848,152.448425 300.972626,192.254639 273.361389,232.059433 
	C272.981903,232.606445 272.579742,233.137848 272.182922,233.672638 
	C268.666687,238.411804 267.841400,238.470047 264.318939,233.502838 
	C259.889343,227.256393 255.670334,220.861023 251.321579,214.556717 
	C219.837708,168.915009 188.335709,123.285774 156.879700,77.624870 
	C155.419357,75.505058 153.407181,73.537048 153.600037,70.603134 
	C155.241959,69.133934 157.157120,69.715866 158.902969,69.700775 
	C167.230255,69.628777 175.580154,70.025604 183.878708,69.530281 
	C189.480499,69.195915 192.648483,71.442108 195.642059,75.896263 
	C212.174255,100.494385 228.952957,124.927071 245.688202,149.388382 
	C251.704834,158.182663 257.819702,166.909973 263.927185,175.641632 
	C265.252838,177.536850 266.470978,179.553909 268.672913,181.065979 
	C270.972717,179.928375 272.047333,177.572174 273.386566,175.610550 
	C296.106628,142.332016 318.799103,109.034416 341.372864,75.656578 
	C344.129486,71.580597 347.177155,69.344666 352.384644,69.570091 
	C361.029388,69.944305 369.702179,69.657753 378.363098,69.680023 
	C380.002808,69.684242 381.702118,69.444984 384.176544,70.940849 
	C375.884735,85.289421 365.634674,98.281906 356.396240,112.347076 
z"/>
</svg>